<svg id="Calque_1" data-name="Calque 1" xmlns="http://www.w3.org/2000/svg" viewBox="0 0 21 31.58"><defs><style>.cls-1{fill:#010202;}</style></defs><title>phone_icon</title><path class="cls-1" d="M33.64,2.82a3.57,3.57,0,0,0-2-.81H16.22a4,4,0,0,0-2,.65,2.26,2.26,0,0,0-.81,1.63v27a2.26,2.26,0,0,0,.81,1.63,2.59,2.59,0,0,0,2,.65H31.68a4,4,0,0,0,2-.65,2.26,2.26,0,0,0,.81-1.63v-27A1.94,1.94,0,0,0,33.64,2.82ZM21.43,4.13h4.72a0.74,0.74,0,0,1,.81.65,0.74,0.74,0,0,1-.81.65h-4.4a0.83,0.83,0,0,1-.81-0.65A0.57,0.57,0,0,1,21.43,4.13ZM26,30.82a1.72,1.72,0,0,1-1.14,1,3.33,3.33,0,0,1-1.79,0,1.72,1.72,0,0,1-1.14-1,1.5,1.5,0,0,1,.16-1.63,2.37,2.37,0,0,1,1.47-1,2.3,2.3,0,0,1,1.47.16,1.9,1.9,0,0,1,1,1A1.2,1.2,0,0,1,26,30.82Zm6.35-4.72H15.73V7.38h16.6V26.1Z" transform="translate(-13.45 -2.01)"/></svg>