<svg id="Calque_1" data-name="Calque 1" xmlns="http://www.w3.org/2000/svg" viewBox="0 0 48 34.03"><defs><style>.cls-1{fill:#010202;}.cls-2{fill:#fff;}</style></defs><title>products_icon</title><path class="cls-1" d="M23.46,29.28H17.19a1.82,1.82,0,0,1-2-1.61L14,1h12.9L25.61,27.67a2.15,2.15,0,0,1-2.15,1.61" transform="translate(0 -0.99)"/><path class="cls-1" d="M23.64,34.48c0,0.36-1.43.54-3.22,0.54s-3.22-.18-3.22-0.54,1.43-.54,3.22-0.54,3.22,0.36,3.22.54" transform="translate(0 -0.99)"/><rect class="cls-1" x="17.19" y="28.3" width="6.45" height="5.37"/><path class="cls-1" d="M9.85,33.94a13.37,13.37,0,0,1-9.85,0V18a30.3,30.3,0,0,0,9.85,0V33.94Z" transform="translate(0 -0.99)"/><path class="cls-1" d="M8.78,18a26.46,26.46,0,0,1-7.52,0V13a26.46,26.46,0,0,0,7.52,0v5Z" transform="translate(0 -0.99)"/><path class="cls-1" d="M7.88,11.91a15.42,15.42,0,0,1-5.73,0V5.46c2.33-1.25,5.73,0,5.73,2.87v3.58Z" transform="translate(0 -0.99)"/><rect class="cls-1" x="31.52" y="8.42" width="16.48" height="25.07"/><polyline class="cls-2" points="44.06 24.36 35.28 24.36 35.28 16.12 44.06 16.12"/><path d="M44.24,9.4a4.89,4.89,0,0,0,2.15-1.61,3.77,3.77,0,0,0,.9-2.33,1.89,1.89,0,0,0-.36-0.9A9,9,0,0,0,44.6,3.31a21.65,21.65,0,0,0-3.22-.9,12.66,12.66,0,0,0-4.48-.36,5.82,5.82,0,0,0-3,1.25,4.89,4.89,0,0,0-1.61,2.15,2.12,2.12,0,0,0,.18,1.79,3.16,3.16,0,0,0,1.43,1.61c0.36,0.18.54,0.54,0.9,0.72l9.49-.18h0" transform="translate(0 -0.99)"/></svg>